<mxfile host="app.diagrams.net" modified="2023-10-23T07:14:24.238Z" agent="Mozilla/5.0 (X11; Linux x86_64; rv:109.0) Gecko/20100101 Firefox/118.0" etag="5X99sQY8TD4eHdPGagUH" version="22.0.6" type="device">
  <diagram name="Page-1" id="oxeZi0pJYm27N8khAa7A">
    <mxGraphModel dx="1434" dy="726" grid="1" gridSize="10" guides="1" tooltips="1" connect="1" arrows="1" fold="1" page="1" pageScale="1" pageWidth="3300" pageHeight="4681" math="0" shadow="0">
      <root>
        <mxCell id="0" />
        <mxCell id="1" parent="0" />
        <mxCell id="Rjfb5oYcCocLVHNwIVBs-2" value="System" style="rounded=0;whiteSpace=wrap;html=1;" parent="1" vertex="1">
          <mxGeometry x="705" y="170" width="120" height="60" as="geometry" />
        </mxCell>
        <mxCell id="Rjfb5oYcCocLVHNwIVBs-4" value="Start" style="ellipse;whiteSpace=wrap;html=1;" parent="1" vertex="1">
          <mxGeometry x="140" y="280" width="120" height="80" as="geometry" />
        </mxCell>
        <mxCell id="Rjfb5oYcCocLVHNwIVBs-5" value="logowanie" style="rounded=0;whiteSpace=wrap;html=1;" parent="1" vertex="1">
          <mxGeometry x="340" y="290" width="120" height="60" as="geometry" />
        </mxCell>
        <mxCell id="Rjfb5oYcCocLVHNwIVBs-6" value="sprawdzenie typu logowania" style="rhombus;whiteSpace=wrap;html=1;" parent="1" vertex="1">
          <mxGeometry x="705" y="265" width="110" height="110" as="geometry" />
        </mxCell>
        <mxCell id="Rjfb5oYcCocLVHNwIVBs-10" value="przejście do quizu" style="rounded=0;whiteSpace=wrap;html=1;" parent="1" vertex="1">
          <mxGeometry x="700" y="490" width="120" height="60" as="geometry" />
        </mxCell>
        <mxCell id="Rjfb5oYcCocLVHNwIVBs-12" value="Actor" style="shape=umlActor;verticalLabelPosition=bottom;verticalAlign=top;html=1;" parent="1" vertex="1">
          <mxGeometry x="185" y="110" width="30" height="60" as="geometry" />
        </mxCell>
        <mxCell id="Rjfb5oYcCocLVHNwIVBs-15" value="" style="html=1;verticalAlign=bottom;startArrow=oval;startFill=1;endArrow=block;startSize=8;curved=0;rounded=0;" parent="1" edge="1">
          <mxGeometry width="60" relative="1" as="geometry">
            <mxPoint x="270" y="319.5" as="sourcePoint" />
            <mxPoint x="330" y="319.5" as="targetPoint" />
          </mxGeometry>
        </mxCell>
        <mxCell id="Rjfb5oYcCocLVHNwIVBs-16" value="zwykły użytkownik" style="html=1;verticalAlign=bottom;startArrow=oval;startFill=1;endArrow=block;startSize=8;curved=0;rounded=0;" parent="1" edge="1">
          <mxGeometry width="60" relative="1" as="geometry">
            <mxPoint x="764.5" y="380" as="sourcePoint" />
            <mxPoint x="764.5" y="480" as="targetPoint" />
          </mxGeometry>
        </mxCell>
        <mxCell id="Rjfb5oYcCocLVHNwIVBs-17" value="wprowadzenie loginu" style="html=1;verticalAlign=bottom;startArrow=oval;startFill=1;endArrow=block;startSize=8;curved=0;rounded=0;exitX=1;exitY=0.5;exitDx=0;exitDy=0;entryX=0;entryY=0.5;entryDx=0;entryDy=0;" parent="1" source="Rjfb5oYcCocLVHNwIVBs-5" target="Rjfb5oYcCocLVHNwIVBs-6" edge="1">
          <mxGeometry width="60" relative="1" as="geometry">
            <mxPoint x="540" y="319.5" as="sourcePoint" />
            <mxPoint x="600" y="319.5" as="targetPoint" />
          </mxGeometry>
        </mxCell>
        <mxCell id="Rjfb5oYcCocLVHNwIVBs-19" value="wyświetlenie panelu administratora" style="html=1;whiteSpace=wrap;" parent="1" vertex="1">
          <mxGeometry x="950" y="295" width="110" height="50" as="geometry" />
        </mxCell>
        <mxCell id="Rjfb5oYcCocLVHNwIVBs-20" value="administrator" style="html=1;verticalAlign=bottom;startArrow=oval;startFill=1;endArrow=block;startSize=8;curved=0;rounded=0;entryX=0;entryY=0.5;entryDx=0;entryDy=0;" parent="1" target="Rjfb5oYcCocLVHNwIVBs-19" edge="1">
          <mxGeometry width="60" relative="1" as="geometry">
            <mxPoint x="820" y="320" as="sourcePoint" />
            <mxPoint x="890" y="319.5" as="targetPoint" />
          </mxGeometry>
        </mxCell>
        <mxCell id="Rjfb5oYcCocLVHNwIVBs-26" value="Actor" style="shape=umlActor;verticalLabelPosition=bottom;verticalAlign=top;html=1;" parent="1" vertex="1">
          <mxGeometry x="185" y="660" width="30" height="60" as="geometry" />
        </mxCell>
        <mxCell id="Rjfb5oYcCocLVHNwIVBs-27" value="wyświetlenie pytania" style="ellipse;whiteSpace=wrap;html=1;" parent="1" vertex="1">
          <mxGeometry x="140" y="820" width="120" height="80" as="geometry" />
        </mxCell>
        <mxCell id="Rjfb5oYcCocLVHNwIVBs-28" value="System" style="rounded=0;whiteSpace=wrap;html=1;" parent="1" vertex="1">
          <mxGeometry x="715" y="670" width="120" height="60" as="geometry" />
        </mxCell>
        <mxCell id="Rjfb5oYcCocLVHNwIVBs-36" style="edgeStyle=orthogonalEdgeStyle;rounded=0;orthogonalLoop=1;jettySize=auto;html=1;entryX=0.5;entryY=0;entryDx=0;entryDy=0;" parent="1" source="Rjfb5oYcCocLVHNwIVBs-29" target="Rjfb5oYcCocLVHNwIVBs-35" edge="1">
          <mxGeometry relative="1" as="geometry" />
        </mxCell>
        <mxCell id="Rjfb5oYcCocLVHNwIVBs-29" value="zapisanie odpowiedzi" style="rounded=0;whiteSpace=wrap;html=1;" parent="1" vertex="1">
          <mxGeometry x="715" y="830" width="120" height="60" as="geometry" />
        </mxCell>
        <mxCell id="Rjfb5oYcCocLVHNwIVBs-33" value="zaznaczenie odpowiedzi" style="html=1;verticalAlign=bottom;startArrow=oval;startFill=1;endArrow=block;startSize=8;curved=0;rounded=0;exitX=1;exitY=0.5;exitDx=0;exitDy=0;entryX=0;entryY=0.5;entryDx=0;entryDy=0;" parent="1" source="Rjfb5oYcCocLVHNwIVBs-27" target="Rjfb5oYcCocLVHNwIVBs-29" edge="1">
          <mxGeometry width="60" relative="1" as="geometry">
            <mxPoint x="360" y="859.5" as="sourcePoint" />
            <mxPoint x="420" y="859.5" as="targetPoint" />
          </mxGeometry>
        </mxCell>
        <mxCell id="Rjfb5oYcCocLVHNwIVBs-34" value="przejście do następnego pytania" style="html=1;verticalAlign=bottom;startArrow=oval;startFill=1;endArrow=block;startSize=8;curved=0;rounded=0;entryX=0.917;entryY=0.875;entryDx=0;entryDy=0;exitX=0;exitY=0.5;exitDx=0;exitDy=0;entryPerimeter=0;" parent="1" source="Rjfb5oYcCocLVHNwIVBs-35" target="Rjfb5oYcCocLVHNwIVBs-27" edge="1">
          <mxGeometry width="60" relative="1" as="geometry">
            <mxPoint x="620" y="1020" as="sourcePoint" />
            <mxPoint x="260" y="1010" as="targetPoint" />
          </mxGeometry>
        </mxCell>
        <mxCell id="Rjfb5oYcCocLVHNwIVBs-35" value="sprawdzenie czy należy zadać następne pytanie" style="rhombus;whiteSpace=wrap;html=1;" parent="1" vertex="1">
          <mxGeometry x="715" y="950" width="120" height="130" as="geometry" />
        </mxCell>
        <mxCell id="n6K1klskPqXKhdbJHRD0-2" value="wyświetlenie wyniku" style="rounded=0;whiteSpace=wrap;html=1;" vertex="1" parent="1">
          <mxGeometry x="715" y="1180" width="120" height="60" as="geometry" />
        </mxCell>
        <mxCell id="n6K1klskPqXKhdbJHRD0-4" value="zakończenie quizu" style="html=1;verticalAlign=bottom;startArrow=oval;startFill=1;endArrow=block;startSize=8;curved=0;rounded=0;entryX=0.5;entryY=0;entryDx=0;entryDy=0;exitX=0.5;exitY=1;exitDx=0;exitDy=0;" edge="1" parent="1" source="Rjfb5oYcCocLVHNwIVBs-35" target="n6K1klskPqXKhdbJHRD0-2">
          <mxGeometry width="60" relative="1" as="geometry">
            <mxPoint x="725" y="1025" as="sourcePoint" />
            <mxPoint x="260" y="900" as="targetPoint" />
          </mxGeometry>
        </mxCell>
        <object label="Administrator" Administrator="Administrator" id="n6K1klskPqXKhdbJHRD0-9">
          <mxCell style="shape=umlActor;verticalLabelPosition=bottom;verticalAlign=top;html=1;" vertex="1" parent="1">
            <mxGeometry x="220" y="1420" width="30" height="60" as="geometry" />
          </mxCell>
        </object>
        <mxCell id="n6K1klskPqXKhdbJHRD0-10" value="System" style="rounded=0;whiteSpace=wrap;html=1;" vertex="1" parent="1">
          <mxGeometry x="750" y="1430" width="120" height="60" as="geometry" />
        </mxCell>
        <mxCell id="n6K1klskPqXKhdbJHRD0-14" value="wyświetlenie panelu administratora" style="rounded=0;whiteSpace=wrap;html=1;" vertex="1" parent="1">
          <mxGeometry x="750" y="1610" width="120" height="60" as="geometry" />
        </mxCell>
        <mxCell id="n6K1klskPqXKhdbJHRD0-15" value="dodanie pytania" style="rounded=0;whiteSpace=wrap;html=1;" vertex="1" parent="1">
          <mxGeometry x="750" y="2270" width="120" height="60" as="geometry" />
        </mxCell>
        <mxCell id="n6K1klskPqXKhdbJHRD0-16" value="usunięcie pytania" style="rounded=0;whiteSpace=wrap;html=1;" vertex="1" parent="1">
          <mxGeometry x="750" y="2500" width="120" height="60" as="geometry" />
        </mxCell>
        <mxCell id="n6K1klskPqXKhdbJHRD0-17" value="wybór działania" style="rhombus;whiteSpace=wrap;html=1;" vertex="1" parent="1">
          <mxGeometry x="195" y="1650" width="80" height="80" as="geometry" />
        </mxCell>
        <mxCell id="n6K1klskPqXKhdbJHRD0-18" value="wyświetlenie panelu edycji pytań" style="rounded=0;whiteSpace=wrap;html=1;" vertex="1" parent="1">
          <mxGeometry x="740" y="2050" width="120" height="60" as="geometry" />
        </mxCell>
        <mxCell id="n6K1klskPqXKhdbJHRD0-19" value="wyświetlenie wyników" style="rounded=0;whiteSpace=wrap;html=1;" vertex="1" parent="1">
          <mxGeometry x="750" y="1830" width="120" height="60" as="geometry" />
        </mxCell>
        <mxCell id="n6K1klskPqXKhdbJHRD0-20" value="" style="html=1;verticalAlign=bottom;endArrow=block;curved=0;rounded=0;entryX=0.5;entryY=0;entryDx=0;entryDy=0;exitX=0;exitY=0.5;exitDx=0;exitDy=0;" edge="1" parent="1" source="n6K1klskPqXKhdbJHRD0-14" target="n6K1klskPqXKhdbJHRD0-17">
          <mxGeometry width="80" relative="1" as="geometry">
            <mxPoint x="510" y="1600" as="sourcePoint" />
            <mxPoint x="590" y="1600" as="targetPoint" />
          </mxGeometry>
        </mxCell>
        <mxCell id="n6K1klskPqXKhdbJHRD0-21" value="edycja pytań" style="html=1;verticalAlign=bottom;endArrow=block;curved=0;rounded=0;entryX=0;entryY=0.5;entryDx=0;entryDy=0;exitX=0.5;exitY=1;exitDx=0;exitDy=0;" edge="1" parent="1" source="n6K1klskPqXKhdbJHRD0-17" target="n6K1klskPqXKhdbJHRD0-18">
          <mxGeometry width="80" relative="1" as="geometry">
            <mxPoint x="280" y="1690" as="sourcePoint" />
            <mxPoint x="600" y="1860" as="targetPoint" />
          </mxGeometry>
        </mxCell>
        <mxCell id="n6K1klskPqXKhdbJHRD0-22" value="wyniki" style="html=1;verticalAlign=bottom;endArrow=block;curved=0;rounded=0;exitX=1;exitY=0.5;exitDx=0;exitDy=0;entryX=-0.025;entryY=0.617;entryDx=0;entryDy=0;entryPerimeter=0;" edge="1" parent="1" source="n6K1klskPqXKhdbJHRD0-17" target="n6K1klskPqXKhdbJHRD0-19">
          <mxGeometry width="80" relative="1" as="geometry">
            <mxPoint x="520" y="1980" as="sourcePoint" />
            <mxPoint x="600" y="1980" as="targetPoint" />
          </mxGeometry>
        </mxCell>
        <mxCell id="n6K1klskPqXKhdbJHRD0-23" value="wybór działania na pytaniach" style="rhombus;whiteSpace=wrap;html=1;" vertex="1" parent="1">
          <mxGeometry x="162.5" y="2080" width="145" height="140" as="geometry" />
        </mxCell>
        <mxCell id="n6K1klskPqXKhdbJHRD0-25" value="" style="html=1;verticalAlign=bottom;endArrow=block;curved=0;rounded=0;exitX=0.5;exitY=1;exitDx=0;exitDy=0;entryX=0.5;entryY=0;entryDx=0;entryDy=0;" edge="1" parent="1" source="n6K1klskPqXKhdbJHRD0-18" target="n6K1klskPqXKhdbJHRD0-23">
          <mxGeometry width="80" relative="1" as="geometry">
            <mxPoint x="530" y="2280" as="sourcePoint" />
            <mxPoint x="610" y="2280" as="targetPoint" />
          </mxGeometry>
        </mxCell>
        <mxCell id="n6K1klskPqXKhdbJHRD0-26" value="dodanie" style="html=1;verticalAlign=bottom;endArrow=block;curved=0;rounded=0;exitX=1;exitY=0.5;exitDx=0;exitDy=0;entryX=0;entryY=0.5;entryDx=0;entryDy=0;" edge="1" parent="1" source="n6K1klskPqXKhdbJHRD0-23" target="n6K1klskPqXKhdbJHRD0-15">
          <mxGeometry width="80" relative="1" as="geometry">
            <mxPoint x="530" y="2280" as="sourcePoint" />
            <mxPoint x="610" y="2280" as="targetPoint" />
          </mxGeometry>
        </mxCell>
        <mxCell id="n6K1klskPqXKhdbJHRD0-27" value="usunięcie" style="html=1;verticalAlign=bottom;endArrow=block;curved=0;rounded=0;exitX=0.5;exitY=1;exitDx=0;exitDy=0;entryX=0;entryY=0.5;entryDx=0;entryDy=0;" edge="1" parent="1" source="n6K1klskPqXKhdbJHRD0-23" target="n6K1klskPqXKhdbJHRD0-16">
          <mxGeometry width="80" relative="1" as="geometry">
            <mxPoint x="530" y="2280" as="sourcePoint" />
            <mxPoint x="610" y="2280" as="targetPoint" />
          </mxGeometry>
        </mxCell>
      </root>
    </mxGraphModel>
  </diagram>
</mxfile>
